<svg width="444" height="85" viewBox="0 0 444 85" fill="none" xmlns="http://www.w3.org/2000/svg">
<path d="M0 0H147.547V85H0V0ZM6.41509 6.41509V78.5849H141.132V6.41509H6.41509Z" fill="#067647"/>
<path d="M85.6819 61.4377C85.3828 60.9719 85.1578 60.4375 85.027 59.8586C84.9422 59.4823 84.8959 59.0876 84.8959 58.6805C84.8959 58.2831 84.9391 57.8977 85.0203 57.5297H84.3148H84.3074H83.8862L83.9026 24.379C83.903 23.8601 83.7009 23.3722 83.3343 23.0053C83.1154 22.7864 82.8531 22.6277 82.5674 22.534C82.4491 22.4953 82.3269 22.4683 82.2024 22.4528H81.9608H34.2055C31.1813 22.4528 28.7295 24.9046 28.7295 27.9288L28.7208 42.8156H48.335C48.5718 42.8156 48.7636 43.0074 48.7636 43.2442C48.7636 43.481 48.5718 43.6728 48.335 43.6728H28.72L28.7202 43.3894L28.7175 47.9971H59.5616C59.7984 47.9971 59.9902 48.1893 59.9902 48.4257C59.9902 48.6623 59.7984 48.8543 59.5616 48.8543H28.7169L28.7118 57.5301H28.3965C27.7738 57.5301 27.2642 58.0397 27.2642 58.6624V58.7264C27.2642 59.3494 27.7738 59.8586 28.3965 59.8586H32.3729C32.2877 59.4823 32.242 59.0876 32.242 58.6805C32.242 58.2831 32.2853 57.8977 32.3662 57.5297C32.7981 55.5723 34.3063 54.12 36.1108 54.0802C36.1363 54.0795 36.1616 54.0778 36.1872 54.0778C38.3661 54.0778 40.1323 56.1384 40.1323 58.6805C40.1323 61.2226 38.3659 63.2831 36.1872 63.2831H38.8384C40.1344 63.2831 41.2843 62.554 42.0034 61.4283C41.5134 60.6616 41.2233 59.7104 41.2233 58.6805C41.2233 57.6507 41.5134 56.6997 42.0034 55.9325C42.7085 54.8291 43.8275 54.108 45.0921 54.0797C45.1176 54.0793 45.1429 54.0774 45.1685 54.0774C47.3472 54.0774 49.1136 56.1381 49.1136 58.6801C49.1136 61.222 47.3472 63.2827 45.1685 63.2827H47.8197C49.6495 63.2827 51.1878 61.8292 51.634 59.8578H51.7639C52.2037 61.8015 53.7059 63.2404 55.5017 63.2802V63.2827H55.5781H58.2294C59.1558 63.2827 60.0072 62.9091 60.6804 62.2854C60.059 61.7099 59.5898 60.921 59.3547 60.0127C59.3415 59.9613 59.3288 59.9098 59.3172 59.8578C59.232 59.4816 59.1861 59.0869 59.1861 58.6798C59.1861 58.2824 59.2293 57.897 59.3103 57.5289C59.7422 55.5715 61.2504 54.1197 63.0548 54.0795C63.0804 54.0787 63.1057 54.0772 63.1312 54.0772C65.3102 54.0772 67.0764 56.1377 67.0764 58.6798C67.0764 61.2218 65.31 63.2823 63.1312 63.2823H64.4832H65.7827H67.2109C68.1373 63.2823 68.9886 62.9087 69.6619 62.2852C69.3935 62.0362 69.1529 61.7488 68.9477 61.4276C68.4577 60.661 68.1676 59.7096 68.1676 58.6798C68.1676 57.6499 68.4577 56.6989 68.9477 55.9317C69.6527 54.8283 70.7718 54.1073 72.0363 54.0789C72.0618 54.0785 72.087 54.0766 72.1127 54.0766C74.2917 54.0766 76.0577 56.1373 76.0577 58.6794C76.0577 61.2213 74.2915 63.2819 72.1127 63.2819H74.764C76.5935 63.2819 78.1322 61.8284 78.578 59.8571H78.7079C79.148 61.8008 80.6497 63.2396 82.4458 63.2795V63.2819H82.522H85.1735C85.8355 63.2819 86.459 63.0907 87.007 62.7544C86.486 62.4355 86.0328 61.9842 85.6819 61.4377Z" fill="#067647"/>
<path d="M119.966 57.5297H119.921V57.5718H116.377V57.5297V56.4331C116.377 56.1546 116.603 55.9291 116.881 55.9291H119.917L119.923 50.7519C119.923 48.9742 119.553 47.2156 118.837 45.5885L115.014 36.9C114.531 35.8014 113.444 35.0925 112.243 35.0939L109.912 35.0964C108.487 33.0793 109.364 31.1364 109.364 31.1364L108.494 31.1362L108.497 24.8244C108.498 23.5147 107.437 22.4528 106.127 22.4528H83.989C84.4854 22.9756 84.7603 23.6557 84.7599 24.3794L84.7563 31.1308H84.3284L89.156 31.1364C89.156 31.1364 88.2751 33.0873 89.7126 35.1087L92.0349 35.0939C92.1494 35.0939 92.2618 35.1021 92.3734 35.1145C93.436 35.2329 94.3685 35.9058 94.8059 36.9L98.6288 45.5885C99.3447 47.2156 99.7145 48.974 99.7145 50.7519L99.7175 55.9291H102.757C103.036 55.9291 103.261 56.155 103.261 56.4331V57.5297V57.5718H99.7171H99.7141L95.3125 57.5297C94.8745 55.5446 93.3301 54.0778 91.4916 54.0778H91.427H88.8405C91.0193 54.0778 92.7856 56.1384 92.7856 58.6805C92.7856 61.2226 91.0193 63.2831 88.8405 63.2831H91.427H91.4916H91.5036H94.1546C95.9844 63.2831 97.5231 61.8295 97.9689 59.8584H104.417C104.857 61.8017 106.359 63.2406 108.155 63.2808V63.2831H108.231H110.883C112.712 63.2831 114.251 61.8295 114.697 59.8584H119.965C120.605 59.8584 121.129 59.3341 121.129 58.694C121.13 58.0536 120.606 57.5297 119.966 57.5297ZM106.385 54.2113H113.464C113.7 54.2113 113.892 54.4031 113.892 54.6399C113.892 54.8767 113.7 55.0686 113.464 55.0686H106.385C106.148 55.0686 105.956 54.8767 105.956 54.6399C105.956 54.4031 106.148 54.2113 106.385 54.2113ZM105.956 53.0302C105.956 52.7936 106.148 52.6015 106.385 52.6015H113.464C113.7 52.6015 113.892 52.7936 113.892 53.0302C113.892 53.267 113.7 53.4588 113.464 53.4588H106.385C106.148 53.4588 105.956 53.267 105.956 53.0302ZM106.385 55.7767H113.464C113.7 55.7767 113.892 55.9685 113.892 56.2053C113.892 56.4421 113.7 56.6339 113.464 56.6339H106.385C106.148 56.6339 105.956 56.4421 105.956 56.2053C105.956 55.9685 106.148 55.7767 106.385 55.7767ZM118.743 52.7726C118.743 53.7549 117.978 54.5512 117.034 54.5512C116.089 54.5512 115.323 53.7549 115.323 52.7726C115.323 51.7904 116.089 50.9943 117.034 50.9943C117.978 50.9943 118.743 51.7904 118.743 52.7726ZM96.9689 37.49H113.165L117.741 47.797H101.545L96.9689 37.49ZM102.872 54.5512C101.927 54.5512 101.162 53.7549 101.162 52.7726C101.162 51.7904 101.927 50.9943 102.872 50.9943C103.816 50.9943 104.582 51.7904 104.582 52.7726C104.582 53.7549 103.816 54.5512 102.872 54.5512Z" fill="#067647"/>
<path d="M95.5932 47.8033C95.9353 47.8033 96.2098 47.513 96.1845 47.1718C96.1129 46.2219 95.8804 45.2896 95.4958 44.415L92.9869 38.7131C92.6697 37.9922 91.9561 37.527 91.1683 37.5277L88.5815 37.5443C87.2003 37.5456 86.0819 38.667 86.084 40.0483L86.1023 47.8035V47.8031L95.5932 47.8033Z" fill="#067647"/>
<path d="M88.841 60.677C89.786 60.677 90.5521 59.7832 90.5521 58.6805C90.5521 57.5779 89.786 56.6841 88.841 56.6841C87.896 56.6841 87.1299 57.5779 87.1299 58.6805C87.1299 59.7832 87.896 60.677 88.841 60.677Z" fill="#067647"/>
<path d="M63.1316 60.677C64.0767 60.677 64.8429 59.7832 64.8429 58.6805C64.8429 57.5779 64.0767 56.6841 63.1316 56.6841C62.1865 56.6841 61.4203 57.5779 61.4203 58.6805C61.4203 59.7832 62.1865 60.677 63.1316 60.677Z" fill="#067647"/>
<path d="M72.1129 60.677C73.058 60.677 73.8242 59.7832 73.8242 58.6805C73.8242 57.5779 73.058 56.6841 72.1129 56.6841C71.1678 56.6841 70.4016 57.5779 70.4016 58.6805C70.4016 59.7832 71.1678 60.677 72.1129 60.677Z" fill="#067647"/>
<path d="M36.1873 60.677C37.1324 60.677 37.8986 59.7832 37.8986 58.6805C37.8986 57.5779 37.1324 56.6841 36.1873 56.6841C35.2422 56.6841 34.476 57.5779 34.476 58.6805C34.476 59.7832 35.2422 60.677 36.1873 60.677Z" fill="#067647"/>
<path d="M45.1686 60.677C46.1138 60.677 46.8799 59.7832 46.8799 58.6805C46.8799 57.5779 46.1138 56.6841 45.1686 56.6841C44.2235 56.6841 43.4573 57.5779 43.4573 58.6805C43.4573 59.7832 44.2235 60.677 45.1686 60.677Z" fill="#067647"/>
<path d="M174.317 29.2583C174.317 31.2558 174.272 35.2065 174.228 35.2065V41.2435C174.228 41.5098 174.184 41.9537 174.317 42.22C174.45 42.5308 174.85 42.442 175.116 42.3976C176.403 42.2644 177.69 42.442 178.978 42.3976C180.398 42.3532 179.954 40.1781 179.91 39.2903C179.732 37.3372 179.954 22.4667 179.954 17.1399C179.954 14.7429 179.866 9.81566 179.732 9.59371C179.51 9.1942 178.933 9.10543 178.489 9.06104C177.513 8.88348 177.025 9.14981 175.56 9.14981C174.095 9.14981 174.006 9.59371 174.006 11.1473V12.479C173.962 13.5444 174.139 21.0018 174.139 22.2003C174.139 22.7774 174.095 22.8218 173.518 22.8218C172.053 22.7774 170.011 22.955 168.502 22.8218C166.327 22.6442 166.815 22.8218 166.682 20.8243V20.5579C166.682 17.717 167.037 10.3483 166.904 9.90444C166.682 9.23859 166.416 9.10543 165.838 9.14981C164.507 9.23859 163.131 9.01665 161.799 9.10543C161.355 9.14981 161.222 9.28298 161.089 9.72688C161.044 9.94883 161 10.1708 161 10.3927C161 11.7688 161.089 13.6332 161.133 15.0092L161 41.3322C161 42.4864 162.021 42.3532 164.285 42.3532C166.371 42.3532 166.904 42.8415 166.904 40.3557C166.904 38.3581 166.771 35.8279 166.815 33.8304C166.859 32.2768 166.815 30.7675 166.815 29.2139C166.859 28.6368 166.993 28.4593 167.525 28.4593C169.478 28.4149 171.609 28.4593 173.562 28.4593C174.184 28.4593 174.317 28.548 174.317 29.2583Z" fill="#067647"/>
<path d="M201.722 9L185 42.4442H218.444L201.722 9ZM201.722 15.2327L211.147 34.0831H198.528L199.922 31.296H206.637L201.722 21.4638L194.019 36.8703H212.541L213.934 39.657H189.51L201.722 15.2327Z" fill="#067647"/>
<path d="M223 9.54015C224.32 9.39011 225.558 9.26257 226.714 9.15754C227.869 9.05251 229.152 9 230.562 9C232.213 9 233.84 9.15004 235.446 9.45012C237.051 9.75021 238.499 10.2829 239.79 11.0481C241.08 11.8133 242.123 12.8486 242.918 14.1539C243.713 15.4593 244.111 17.1172 244.111 19.1278C244.111 20.3281 243.961 21.3859 243.661 22.3011C243.361 23.2164 242.978 24.0191 242.513 24.7093C242.048 25.3995 241.545 25.9922 241.005 26.4873C240.465 26.9824 239.955 27.38 239.475 27.6801L238.709 28.1753L246.586 41.859L244.696 42.0391C244.036 42.0991 243.361 42.1291 242.67 42.1291C241.53 42.1291 240.405 42.0391 239.294 41.859L230.832 26.8249L231.912 26.2847C232.333 26.0747 232.843 25.8046 233.443 25.4745C234.043 25.1444 234.621 24.7318 235.176 24.2367C235.731 23.7415 236.204 23.1414 236.594 22.4362C236.984 21.731 237.179 20.8983 237.179 19.938C237.179 18.0475 236.639 16.6596 235.558 15.7744C234.478 14.8891 233.083 14.4465 231.372 14.4465C230.712 14.4465 230.112 14.4915 229.572 14.5815V41.904L227.951 42.0391C227.411 42.0991 226.886 42.1291 226.376 42.1291C225.866 42.1291 225.326 42.1141 224.755 42.0841C224.185 42.0541 223.6 41.994 223 41.904V9.54015ZM257.705 9.54015C258.335 9.45012 258.935 9.38261 259.505 9.33759C260.075 9.29258 260.705 9.27007 261.396 9.27007C261.996 9.27007 262.581 9.29258 263.151 9.33759C263.721 9.38261 264.351 9.45012 265.042 9.54015L275.169 41.904C273.939 42.0841 272.746 42.1741 271.591 42.1741C270.436 42.1741 269.318 42.0841 268.237 41.904L266.437 35.4222H255.724L253.878 41.904C252.798 42.0841 251.763 42.1741 250.773 42.1741C249.662 42.1741 248.567 42.0841 247.487 41.904L257.705 9.54015ZM264.906 29.9758L261.17 16.382L257.254 29.9758H264.906ZM286.332 25.6096L295.11 9.54015C295.8 9.42011 296.438 9.34509 297.023 9.31509C297.608 9.28508 298.148 9.27007 298.643 9.27007C299.138 9.27007 299.701 9.30008 300.331 9.3601L302.312 9.54015L293.444 25.1594L303.077 41.904L301.096 42.0841C300.436 42.1441 299.859 42.1741 299.363 42.1741C298.868 42.1741 298.328 42.1591 297.743 42.1291C297.158 42.0991 296.505 42.0241 295.785 41.904L286.332 25.6096ZM278.815 9.49514C279.385 9.40511 279.941 9.34509 280.481 9.31509C281.021 9.28508 281.561 9.27007 282.101 9.27007C282.641 9.27007 283.181 9.28508 283.722 9.31509C284.262 9.34509 284.817 9.40511 285.387 9.49514V41.949C284.817 42.0391 284.262 42.0991 283.722 42.1291C283.181 42.1591 282.641 42.1741 282.101 42.1741C281.561 42.1741 281.021 42.1591 280.481 42.1291C279.941 42.0991 279.385 42.0391 278.815 41.949V9.49514ZM314.195 9.54015C314.825 9.45012 315.425 9.38261 315.995 9.33759C316.566 9.29258 317.196 9.27007 317.886 9.27007C318.486 9.27007 319.071 9.29258 319.641 9.33759C320.212 9.38261 320.842 9.45012 321.532 9.54015L331.66 41.904C330.429 42.0841 329.237 42.1741 328.081 42.1741C326.926 42.1741 325.808 42.0841 324.728 41.904L322.927 35.4222H312.214L310.369 41.904C309.289 42.0841 308.253 42.1741 307.263 42.1741C306.153 42.1741 305.057 42.0841 303.977 41.904L314.195 9.54015ZM321.397 29.9758L317.661 16.382L313.745 29.9758H321.397ZM341.202 26.9149C340.182 26.5248 339.267 26.0972 338.457 25.6321C337.646 25.1669 336.956 24.6118 336.386 23.9666C335.816 23.3214 335.373 22.5487 335.058 21.6485C334.743 20.7482 334.586 19.6679 334.586 18.4076C334.586 16.8772 334.848 15.5268 335.373 14.3565C335.898 13.1861 336.641 12.2034 337.601 11.4082C338.562 10.6129 339.717 10.0128 341.067 9.60767C342.418 9.20256 343.933 9 345.614 9C347.144 9 348.577 9.13504 349.912 9.40511C351.248 9.67518 352.651 10.0653 354.121 10.5754C353.941 12.3159 353.461 14.0264 352.681 15.7068L351.33 15.1667C350.85 14.9866 350.347 14.8366 349.822 14.7166C349.297 14.5965 348.704 14.499 348.044 14.424C347.384 14.349 346.634 14.3115 345.794 14.3115C345.284 14.3115 344.766 14.3565 344.241 14.4465C343.716 14.5365 343.243 14.7016 342.823 14.9416C342.403 15.1817 342.058 15.5343 341.788 15.9994C341.517 16.4645 341.382 17.0722 341.382 17.8224C341.382 18.4226 341.487 18.9252 341.698 19.3303C341.908 19.7354 342.193 20.0805 342.553 20.3656C342.913 20.6507 343.318 20.8833 343.768 21.0633L345.118 21.6485L347.819 22.6838C348.96 23.1339 349.995 23.599 350.925 24.0791C351.855 24.5593 352.643 25.1519 353.288 25.8571C353.933 26.5623 354.436 27.4175 354.796 28.4228C355.156 29.4281 355.336 30.6809 355.336 32.1814C355.336 33.6818 355.059 35.0621 354.504 36.3225C353.948 37.5828 353.146 38.6631 352.095 39.5634C351.045 40.4636 349.747 41.1688 348.202 41.679C346.656 42.1891 344.878 42.4442 342.868 42.4442C341.878 42.4442 340.992 42.4142 340.212 42.3541C339.432 42.2941 338.689 42.1966 337.984 42.0616C337.279 41.9265 336.581 41.754 335.891 41.5439C335.201 41.3339 334.481 41.0788 333.73 40.7787C333.82 39.9085 333.985 39.0007 334.225 38.0555C334.466 37.1102 334.751 36.1574 335.081 35.1972C336.341 35.7073 337.526 36.0899 338.637 36.345C339.747 36.6001 340.932 36.7276 342.193 36.7276C344.083 36.7276 345.569 36.375 346.649 35.6698C347.729 34.9646 348.269 33.8918 348.269 32.4514C348.269 31.7312 348.142 31.1311 347.887 30.6509C347.632 30.1708 347.302 29.7657 346.896 29.4356C346.491 29.1055 346.034 28.8279 345.524 28.6029C345.013 28.3778 344.488 28.1603 343.948 27.9502L341.202 26.9149ZM367.58 9.54015C368.21 9.45012 368.81 9.38261 369.38 9.33759C369.95 9.29258 370.58 9.27007 371.271 9.27007C371.871 9.27007 372.456 9.29258 373.026 9.33759C373.596 9.38261 374.226 9.45012 374.917 9.54015L385.044 41.904C383.814 42.0841 382.621 42.1741 381.466 42.1741C380.311 42.1741 379.193 42.0841 378.113 41.904L376.312 35.4222H365.599L363.754 41.904C362.673 42.0841 361.638 42.1741 360.648 42.1741C359.537 42.1741 358.442 42.0841 357.362 41.904L367.58 9.54015ZM374.782 29.9758L371.046 16.382L367.13 29.9758H374.782ZM388.69 9.54015C389.621 9.3601 390.521 9.27007 391.391 9.27007C392.261 9.27007 393.177 9.3601 394.137 9.54015L406.65 30.1558V9.54015C407.731 9.3601 408.751 9.27007 409.711 9.27007C410.671 9.27007 411.587 9.3601 412.457 9.54015V41.904C411.497 42.0841 410.611 42.1741 409.801 42.1741C408.991 42.1741 408.091 42.0841 407.1 41.904L394.497 21.3334V41.904C393.537 42.0841 392.561 42.1741 391.571 42.1741C390.581 42.1741 389.621 42.0841 388.69 41.904V9.54015ZM426.276 9.54015C426.906 9.45012 427.506 9.38261 428.076 9.33759C428.646 9.29258 429.277 9.27007 429.967 9.27007C430.567 9.27007 431.152 9.29258 431.722 9.33759C432.292 9.38261 432.923 9.45012 433.613 9.54015L443.741 41.904C442.51 42.0841 441.317 42.1741 440.162 42.1741C439.007 42.1741 437.889 42.0841 436.809 41.904L435.008 35.4222H424.295L422.45 41.904C421.369 42.0841 420.334 42.1741 419.344 42.1741C418.234 42.1741 417.138 42.0841 416.058 41.904L426.276 9.54015ZM433.478 29.9758L429.742 16.382L425.826 29.9758H433.478Z" fill="#067647"/>
<path d="M174.37 52.5408V55.2448H163.884V61.9148H173.649V64.6188H163.884V73.8126H161V52.5408H174.37ZM191.321 52.5408L200.425 73.8126H197.06L194.927 68.5547H184.802L182.698 73.8126H179.333L188.707 52.5408H191.321ZM185.823 66.0309H193.875L189.909 56.2664H189.849L185.823 66.0309ZM214.732 52C217.496 52 219.539 52.8113 220.861 54.4338L218.518 56.567C218.157 56.0061 217.647 55.5554 216.986 55.2149C216.325 54.8745 215.563 54.7042 214.702 54.7042C213.46 54.7042 212.464 55.0097 211.713 55.6206C210.962 56.2315 210.586 57.0176 210.586 57.9791C210.586 59.5815 211.648 60.7031 213.771 61.3441L216.445 62.2154C217.947 62.6961 219.094 63.3671 219.885 64.2284C220.676 65.0897 221.072 66.2715 221.072 67.7737C221.072 69.7367 220.376 71.3241 218.984 72.5358C217.591 73.7475 215.824 74.3535 213.681 74.3535C210.616 74.3535 208.353 73.372 206.891 71.4091L209.264 69.3661C209.725 70.0872 210.356 70.648 211.157 71.0486C211.958 71.4492 212.829 71.6495 213.771 71.6495C214.953 71.6495 215.954 71.309 216.775 70.628C217.597 69.9469 218.007 69.1057 218.007 68.1042C218.007 67.3631 217.757 66.7421 217.256 66.2414C216.755 65.7407 215.854 65.29 214.552 64.8894L212.659 64.2584C210.756 63.6175 209.424 62.8013 208.663 61.8098C207.902 60.8183 207.521 59.5414 207.521 57.9791C207.521 56.3165 208.192 54.9046 209.534 53.7428C210.876 52.5809 212.609 52 214.732 52ZM244.963 52.5408V55.2448H238.113V73.8126H235.229V55.2448H228.379V52.5408H244.963ZM274.359 52.5408C276.623 52.5408 278.586 53.0065 280.248 53.9379C281.91 54.8693 283.182 56.1462 284.064 57.7686C284.945 59.391 285.386 61.1937 285.386 63.1767C285.386 65.1596 284.895 66.9674 283.913 68.5998C282.932 70.2321 281.56 71.5092 279.797 72.4305C278.035 73.3518 276.072 73.8126 273.909 73.8126H266.788V52.5408H274.359ZM273.458 71.1085C275.08 71.1085 276.568 70.793 277.92 70.1621C279.272 69.5311 280.343 68.6248 281.134 67.443C281.926 66.2612 282.321 64.8392 282.321 63.1767C282.321 60.7731 281.575 58.8502 280.083 57.408C278.591 55.9659 276.613 55.2448 274.149 55.2448H269.672V71.1085L273.458 71.1085ZM308.706 52.5408V55.2448H297.86V61.5843H307.955V64.2883H297.86V71.1085H309.247V73.8126H294.976V52.5408H308.706ZM321.662 52.5408V71.1085H331.426V73.8126H318.778V52.5408H321.662ZM342.699 52.5408V73.8126H339.815V52.5408H342.699ZM354.032 52.5408L360.281 69.8466H360.342L366.831 52.5408H369.986L361.603 73.8126H358.899L350.697 52.5408H354.032ZM391.714 52.5408V55.2448H380.868V61.5843H390.963V64.2883H380.868V71.1085H392.255V73.8126H377.984V52.5408H391.714ZM409.417 52.5408C411.5 52.5408 413.132 53.0616 414.314 54.1031C415.496 55.1447 416.087 56.6069 416.087 58.4897C416.087 59.9118 415.601 61.1536 414.63 62.2152C413.658 63.2769 412.411 63.9078 410.889 64.1081H410.859L416.898 73.8126H413.293L407.885 64.4386H404.67V73.8126H401.785V52.5408H409.417ZM408.576 61.9148C410.078 61.9148 411.194 61.6393 411.926 61.0885C412.657 60.5377 413.022 59.6714 413.022 58.4897C413.022 56.2062 411.54 55.0645 408.576 55.0645H404.67V61.9148L408.576 61.9148ZM425.707 52.5408L431.506 61.8848L437.485 52.5408H441L432.948 64.739V73.8126H430.064V64.739L422.012 52.5408H425.707Z" fill="white"/>
</svg>
